<mxfile host="app.diagrams.net" agent="Mozilla/5.0 (X11; Linux x86_64) AppleWebKit/537.36 (KHTML, like Gecko) Chrome/137.0.0.0 Safari/537.36" version="27.1.6">
  <diagram name="Page-1" id="3JYmZaKbXXx_7mXPCtT7">
    <mxGraphModel dx="1404" dy="766" grid="1" gridSize="10" guides="1" tooltips="1" connect="1" arrows="1" fold="1" page="1" pageScale="1" pageWidth="1169" pageHeight="827" background="none" math="0" shadow="0">
      <root>
        <mxCell id="0" />
        <mxCell id="1" parent="0" />
        <mxCell id="uoEjIi_UU5YOOnu76TaS-20" value="" style="rounded=0;whiteSpace=wrap;html=1;" parent="1" vertex="1">
          <mxGeometry x="100" y="60" width="960" height="700" as="geometry" />
        </mxCell>
        <mxCell id="S5ZqY4bmx3xec0Xrlnqr-2" value="" style="rounded=0;whiteSpace=wrap;html=1;dashed=1;" vertex="1" parent="1">
          <mxGeometry x="340" y="600" width="680" height="120" as="geometry" />
        </mxCell>
        <mxCell id="uoEjIi_UU5YOOnu76TaS-15" value="" style="rounded=0;whiteSpace=wrap;html=1;" parent="1" vertex="1">
          <mxGeometry x="140" y="180" width="120" height="220" as="geometry" />
        </mxCell>
        <mxCell id="uoEjIi_UU5YOOnu76TaS-13" value="" style="rounded=0;whiteSpace=wrap;html=1;" parent="1" vertex="1">
          <mxGeometry x="340" y="100" width="680" height="300" as="geometry" />
        </mxCell>
        <mxCell id="uoEjIi_UU5YOOnu76TaS-6" value="" style="rounded=0;whiteSpace=wrap;html=1;dashed=1;" parent="1" vertex="1">
          <mxGeometry x="340" y="440" width="680" height="120" as="geometry" />
        </mxCell>
        <mxCell id="QK-Zpm7hSZg5hhYRGm4s-1" value="nginx" style="rounded=0;whiteSpace=wrap;html=1;" parent="1" vertex="1">
          <mxGeometry x="540" y="220" width="80" height="40" as="geometry" />
        </mxCell>
        <mxCell id="QK-Zpm7hSZg5hhYRGm4s-2" value="web" style="rounded=0;whiteSpace=wrap;html=1;strokeWidth=1;fillColor=#dae8fc;strokeColor=#6c8ebf;" parent="1" vertex="1">
          <mxGeometry x="660" y="220" width="80" height="40" as="geometry" />
        </mxCell>
        <mxCell id="QK-Zpm7hSZg5hhYRGm4s-3" value="pgsql" style="rounded=0;whiteSpace=wrap;html=1;" parent="1" vertex="1">
          <mxGeometry x="780" y="220" width="80" height="40" as="geometry" />
        </mxCell>
        <mxCell id="QK-Zpm7hSZg5hhYRGm4s-4" value="game" style="rounded=0;whiteSpace=wrap;html=1;strokeWidth=1;fillColor=#d5e8d4;strokeColor=#82b366;" parent="1" vertex="1">
          <mxGeometry x="540" y="300" width="200" height="40" as="geometry" />
        </mxCell>
        <mxCell id="QK-Zpm7hSZg5hhYRGm4s-5" value="connect" style="rounded=0;whiteSpace=wrap;html=1;strokeWidth=1;fillColor=#e1d5e7;strokeColor=#9673a6;" parent="1" vertex="1">
          <mxGeometry x="540" y="340" width="200" height="40" as="geometry" />
        </mxCell>
        <mxCell id="QK-Zpm7hSZg5hhYRGm4s-6" value="pgsql" style="rounded=0;whiteSpace=wrap;html=1;dashed=1;" parent="1" vertex="1">
          <mxGeometry x="780" y="320" width="80" height="40" as="geometry" />
        </mxCell>
        <mxCell id="QK-Zpm7hSZg5hhYRGm4s-7" value="us.r2f2.com" style="text;html=1;strokeColor=none;fillColor=none;align=center;verticalAlign=middle;whiteSpace=wrap;rounded=0;" parent="1" vertex="1">
          <mxGeometry x="470" y="325" width="60" height="30" as="geometry" />
        </mxCell>
        <mxCell id="QK-Zpm7hSZg5hhYRGm4s-8" value="game" style="rounded=0;whiteSpace=wrap;html=1;strokeWidth=1;fillColor=#d5e8d4;strokeColor=#82b366;" parent="1" vertex="1">
          <mxGeometry x="540" y="460" width="200" height="40" as="geometry" />
        </mxCell>
        <mxCell id="QK-Zpm7hSZg5hhYRGm4s-9" value="connect" style="rounded=0;whiteSpace=wrap;html=1;strokeWidth=1;fillColor=#e1d5e7;strokeColor=#9673a6;" parent="1" vertex="1">
          <mxGeometry x="540" y="500" width="200" height="40" as="geometry" />
        </mxCell>
        <mxCell id="QK-Zpm7hSZg5hhYRGm4s-10" value="pgsql" style="rounded=0;whiteSpace=wrap;html=1;" parent="1" vertex="1">
          <mxGeometry x="780" y="480" width="80" height="40" as="geometry" />
        </mxCell>
        <mxCell id="QK-Zpm7hSZg5hhYRGm4s-11" value="cn.r2f2.com&lt;br&gt;or ip" style="text;html=1;strokeColor=none;fillColor=none;align=center;verticalAlign=middle;whiteSpace=wrap;rounded=0;" parent="1" vertex="1">
          <mxGeometry x="470" y="485" width="60" height="30" as="geometry" />
        </mxCell>
        <mxCell id="QK-Zpm7hSZg5hhYRGm4s-12" value="game" style="rounded=0;whiteSpace=wrap;html=1;strokeWidth=1;fillColor=#d5e8d4;strokeColor=#82b366;" parent="1" vertex="1">
          <mxGeometry x="540" y="620" width="200" height="40" as="geometry" />
        </mxCell>
        <mxCell id="QK-Zpm7hSZg5hhYRGm4s-13" value="connect" style="rounded=0;whiteSpace=wrap;html=1;strokeWidth=1;fillColor=#e1d5e7;strokeColor=#9673a6;" parent="1" vertex="1">
          <mxGeometry x="540" y="660" width="200" height="40" as="geometry" />
        </mxCell>
        <mxCell id="QK-Zpm7hSZg5hhYRGm4s-14" value="pgsql" style="rounded=0;whiteSpace=wrap;html=1;" parent="1" vertex="1">
          <mxGeometry x="780" y="640" width="80" height="40" as="geometry" />
        </mxCell>
        <mxCell id="QK-Zpm7hSZg5hhYRGm4s-15" value="in.r2f2.com" style="text;html=1;strokeColor=none;fillColor=none;align=center;verticalAlign=middle;whiteSpace=wrap;rounded=0;" parent="1" vertex="1">
          <mxGeometry x="470" y="645" width="60" height="30" as="geometry" />
        </mxCell>
        <mxCell id="QK-Zpm7hSZg5hhYRGm4s-18" value="r2f2.com" style="text;html=1;strokeColor=none;fillColor=none;align=center;verticalAlign=middle;whiteSpace=wrap;rounded=0;" parent="1" vertex="1">
          <mxGeometry x="360" y="225" width="60" height="30" as="geometry" />
        </mxCell>
        <mxCell id="EE7lpj1GWda1ViKvBgqN-1" value="mail" style="rounded=0;whiteSpace=wrap;html=1;" parent="1" vertex="1">
          <mxGeometry x="540" y="140" width="80" height="40" as="geometry" />
        </mxCell>
        <mxCell id="EE7lpj1GWda1ViKvBgqN-2" value="pgadmin" style="rounded=0;whiteSpace=wrap;html=1;" parent="1" vertex="1">
          <mxGeometry x="780" y="180" width="80" height="40" as="geometry" />
        </mxCell>
        <mxCell id="uoEjIi_UU5YOOnu76TaS-1" value="mail.r2f2.com" style="text;html=1;strokeColor=none;fillColor=none;align=center;verticalAlign=middle;whiteSpace=wrap;rounded=0;" parent="1" vertex="1">
          <mxGeometry x="470" y="145" width="60" height="30" as="geometry" />
        </mxCell>
        <mxCell id="uoEjIi_UU5YOOnu76TaS-3" value="grafana" style="rounded=0;whiteSpace=wrap;html=1;" parent="1" vertex="1">
          <mxGeometry x="900" y="140" width="80" height="40" as="geometry" />
        </mxCell>
        <mxCell id="uoEjIi_UU5YOOnu76TaS-4" value="loki" style="rounded=0;whiteSpace=wrap;html=1;" parent="1" vertex="1">
          <mxGeometry x="900" y="180" width="80" height="40" as="geometry" />
        </mxCell>
        <mxCell id="uoEjIi_UU5YOOnu76TaS-5" value="promtail" style="rounded=0;whiteSpace=wrap;html=1;dashed=1;" parent="1" vertex="1">
          <mxGeometry x="900" y="320" width="80" height="40" as="geometry" />
        </mxCell>
        <mxCell id="uoEjIi_UU5YOOnu76TaS-9" value="browser" style="rounded=0;whiteSpace=wrap;html=1;" parent="1" vertex="1">
          <mxGeometry x="160" y="220" width="80" height="40" as="geometry" />
        </mxCell>
        <mxCell id="uoEjIi_UU5YOOnu76TaS-10" value="mu.exe" style="rounded=0;whiteSpace=wrap;html=1;strokeWidth=1;fillColor=#fff2cc;strokeColor=#d6b656;" parent="1" vertex="1">
          <mxGeometry x="160" y="340" width="80" height="40" as="geometry" />
        </mxCell>
        <mxCell id="uoEjIi_UU5YOOnu76TaS-11" value="main.exe" style="rounded=0;whiteSpace=wrap;html=1;strokeWidth=1;fillColor=#ffe6cc;strokeColor=#d79b00;" parent="1" vertex="1">
          <mxGeometry x="160" y="300" width="80" height="40" as="geometry" />
        </mxCell>
        <mxCell id="uoEjIi_UU5YOOnu76TaS-12" value="cloudflare" style="rounded=0;whiteSpace=wrap;html=1;" parent="1" vertex="1">
          <mxGeometry x="420" y="220" width="80" height="40" as="geometry" />
        </mxCell>
        <mxCell id="uoEjIi_UU5YOOnu76TaS-16" value="docker" style="text;html=1;align=center;verticalAlign=middle;whiteSpace=wrap;rounded=0;" parent="1" vertex="1">
          <mxGeometry x="340" y="100" width="60" height="30" as="geometry" />
        </mxCell>
        <mxCell id="uoEjIi_UU5YOOnu76TaS-18" value="bin" style="text;html=1;align=center;verticalAlign=middle;whiteSpace=wrap;rounded=0;" parent="1" vertex="1">
          <mxGeometry x="130" y="180" width="60" height="30" as="geometry" />
        </mxCell>
        <mxCell id="uoEjIi_UU5YOOnu76TaS-19" value="todo" style="text;html=1;align=center;verticalAlign=middle;whiteSpace=wrap;rounded=0;" parent="1" vertex="1">
          <mxGeometry x="340" y="440" width="60" height="30" as="geometry" />
        </mxCell>
        <mxCell id="S5ZqY4bmx3xec0Xrlnqr-1" value="promtail" style="rounded=0;whiteSpace=wrap;html=1;" vertex="1" parent="1">
          <mxGeometry x="900" y="480" width="80" height="40" as="geometry" />
        </mxCell>
        <mxCell id="S5ZqY4bmx3xec0Xrlnqr-3" value="promtail" style="rounded=0;whiteSpace=wrap;html=1;" vertex="1" parent="1">
          <mxGeometry x="900" y="640" width="80" height="40" as="geometry" />
        </mxCell>
        <mxCell id="S5ZqY4bmx3xec0Xrlnqr-4" value="promtail" style="rounded=0;whiteSpace=wrap;html=1;" vertex="1" parent="1">
          <mxGeometry x="900" y="220" width="80" height="40" as="geometry" />
        </mxCell>
        <mxCell id="S5ZqY4bmx3xec0Xrlnqr-5" value="todo" style="text;html=1;align=center;verticalAlign=middle;whiteSpace=wrap;rounded=0;" vertex="1" parent="1">
          <mxGeometry x="340" y="600" width="60" height="30" as="geometry" />
        </mxCell>
      </root>
    </mxGraphModel>
  </diagram>
</mxfile>
